<svg 
          width="52.58253479003906" 
          height="11.480859756469727" fill="none" 
          xmlns="http://www.w3.org/2000/svg">
          <path d="M 3.7827140109766595 11.480859756469725 C 3.3996544060133207 11.480859756469725 3.0112741668159257 11.423350582848151 2.6175740068885984 11.308332861622787 C 2.223873846961271 11.193315140397424 1.851454830938308 11.020788687936385 1.500316788937775 10.790753245485655 C 1.1598193698540045 10.550261636695371 0.8565638421796142 10.247032796154446 0.590550239890991 9.88106734153376 C 0.3245365526614006 9.515101820137843 0.12768651516822052 9.081171801818078 0 8.579276218170781 L 1.596081681684513 7.951907439751578 C 1.7344088877222696 8.506083754933808 1.9844617509999738 8.960925972382224 2.346240212058948 9.31643522727574 C 2.7186593979638456 9.66148844938016 3.1921637710856685 9.834014843412872 3.7667532634716436 9.834014843412872 C 4.054047771829923 9.834014843412872 4.325381379789446 9.786962787677883 4.580754647960595 9.692857349050207 C 4.8361276103442625 9.588295810858206 5.054259089035192 9.452365423077579 5.235148557399387 9.285066895195147 C 5.416037702987906 9.107312267748389 5.559685025119821 8.898188657162546 5.666090370901387 8.657697048372262 C 5.772496030964532 8.417205439581977 5.825698933195926 8.150573732125146 5.825698933195926 7.85780137510612 C 5.825698933195926 7.565028884536634 5.772496030964532 7.298397160385995 5.666090370901387 7.057905701839978 C 5.570325435684165 6.806957759772062 5.431998450492922 6.592606232954516 5.251109304904403 6.414851688976796 C 5.070220159315883 6.237097144999076 4.85208866363676 6.101167742153093 4.596715395465611 6.007062303525418 C 4.341342433081944 5.902500531620111 4.0646884966758465 5.850219574718776 3.7667532634716436 5.850219574718776 C 3.4156152214711106 5.850219574718776 3.0963988783389307 5.928640621939754 2.8091040641931695 6.085483133726898 C 2.5218094199293426 6.231869312236411 2.282396899263209 6.4253078052349295 2.090867028828766 6.665799414025214 L 0.33517719256635653 5.897272072839664 L 0.9895706942885061 0.501895450096836 L 6.942956151146749 0.501895450096836 L 6.942956151146749 2.086003164790665 L 2.4739267357212653 2.086003164790665 L 2.07490628132375 4.877797006605696 L 2.1706713099760355 4.909165338686288 C 2.404763298337273 4.731410794708568 2.676097042202343 4.57979620750003 2.9846728303705343 4.45432238671034 C 3.2932486185387257 4.328848257085211 3.6709879630082636 4.266111325823106 4.117890795826374 4.266111325823106 C 4.575434353490407 4.266111325823106 5.0116967672500765 4.3549883557517575 5.426678071081768 4.53274321691182 C 5.852299759995514 4.700041744794252 6.224718945900411 4.940533370278345 6.543935289032591 5.254218059976482 C 6.863151632164771 5.567902749674619 7.118524560572052 5.944324838061473 7.3100544310064945 6.383483356896204 C 7.501584301440937 6.822641875730936 7.597349516963351 7.308853093012246 7.597349516963351 7.842117209065824 C 7.597349516963351 8.364924991841772 7.501584301440937 8.85113627589831 7.3100544310064945 9.300751061235443 C 7.118524560572052 9.739909646845405 6.852511281059104 10.121559668157767 6.512013794022559 10.44570052419546 C 6.171516306986015 10.769841380233155 5.7671755241419245 11.026017038207083 5.29899154741945 11.214227865381012 C 4.841448295542898 11.391982526215385 4.336022495363817 11.480859756469725 3.7827140109766595 11.480859756469725 ZM 10.36580205739366 11.324017027663084 C 10.025304638309889 11.324017027663084 9.73268913896549 11.208999748823619 9.487956595640265 10.97896430637289 C 9.253864607279027 10.738472714276412 9.136819063285536 10.450927922919131 9.136819063285536 10.116330900541882 C 9.136819063285536 9.781733844777019 9.253864607279027 9.494190105129611 9.487956595640265 9.253698563114556 C 9.73268913896549 9.013206954324271 10.025304638309889 8.892960607380385 10.36580205739366 8.892960607380385 C 10.706299544430204 8.892960607380385 10.99891497582183 9.013206954324271 11.243647519147055 9.253698563114556 C 11.488380062472281 9.494190105129611 11.6107457990068 9.781733844777019 11.6107457990068 10.116330900541882 C 11.6107457990068 10.450927922919131 11.488380062472281 10.738472714276412 11.243647519147055 10.97896430637289 C 10.99891497582183 11.208999748823619 10.706299544430204 11.324017027663084 10.36580205739366 11.324017027663084 Z M 10.36580205739366 5.818851242638184 C 10.025304638309889 5.818851242638184 9.73268913896549 5.703832728456962 9.487956595640265 5.473797452944308 C 9.253864607279027 5.233305844154024 9.136819063285536 4.945762171281846 9.136819063285536 4.6111651155169815 C 9.136819063285536 4.276568059752117 9.253864607279027 3.994251685440765 9.487956595640265 3.764216409928111 C 9.73268913896549 3.523724801137826 10.025304638309889 3.4034789883957797 10.36580205739366 3.4034789883957797 C 10.706299544430204 3.4034789883957797 10.99891497582183 3.523724801137826 11.243647519147055 3.764216409928111 C 11.488380062472281 3.994251685440765 11.6107457990068 4.276568059752117 11.6107457990068 4.6111651155169815 C 11.6107457990068 4.945762171281846 11.488380062472281 5.233305844154024 11.243647519147055 5.473797452944308 C 10.99891497582183 5.703832728456962 10.706299544430204 5.818851242638184 10.36580205739366 5.818851242638184 ZM 15.712301291639093 11.229912031421307 L 15.712301291639093 2.603582780927797 L 13.685277660547033 3.466215652556964 L 13.014924090847606 1.976213468306752 L 16.223048473532742 0.501895450096836 L 17.4839529626509 0.501895450096836 L 17.4839529626509 11.229912031421307 L 15.712301291639093 11.229912031421307 ZM 23.138821884301652 11.480859756469725 C 22.755762279338313 11.480859756469725 22.372701145437567 11.4285785992427 21.989641540474228 11.324017027663084 C 21.60658179960534 11.219455464430371 21.244803678310237 11.057385019717717 20.904306361155626 10.837805743606545 C 20.57444942908307 10.607770284462008 20.276513839126807 10.320226594896022 20.010500151897215 9.975173406179218 C 19.74448654960859 9.630120250850029 19.542316659338255 9.217102164557993 19.403989572217853 8.736118946977424 L 21.063913836205785 8.06169660203365 C 21.21288160570163 8.62632911694305 21.468255604365094 9.060259202038045 21.83003406542407 9.363487725396627 C 22.191812696364977 9.66671624875521 22.62807582362877 9.818330677372575 23.138821884301652 9.818330677372575 C 23.39419484668532 9.818330677372575 23.638926302766166 9.776506612991424 23.873018444021145 9.692857349050207 C 24.117750987346373 9.60920808510899 24.33056137312202 9.494189737865845 24.51145051871054 9.347803559356333 C 24.692339987074735 9.190961214507263 24.835987530053163 9.013206837467619 24.94239287583473 8.814539777178904 C 25.0487982216163 8.605416700794901 25.10200252537365 8.375381058018482 25.10200252537365 8.124433266194833 C 25.10200252537365 7.873485474371185 25.043477884675625 7.643449831594766 24.926432128329715 7.434326755210764 C 24.82002646826657 7.225203511888686 24.67105889413495 7.047449151542849 24.479529023700508 6.901062973033336 C 24.287999459053548 6.7546767945238235 24.059228393725657 6.639659357093186 23.793214706496066 6.556010251743142 C 23.537841438324918 6.472360829210754 23.26118672046192 6.430535855017092 22.96325148725772 6.430535855017092 L 22.02156303548426 6.430535855017092 L 22.02156303548426 4.815060342444512 L 22.867487002227623 4.815060342444512 C 23.12285996461129 4.815060342444512 23.356953227087036 4.783691342611618 23.569764241425844 4.720954277799054 C 23.7932156578349 4.6477611885442975 23.99006533008192 4.548427875419438 24.16031407360019 4.422954054629748 C 24.330562817118462 4.297480233840058 24.46357000049713 4.140637813868855 24.55933493571435 3.952426936613504 C 24.655099870931572 3.7537600265690574 24.702981663259493 3.528952533737646 24.702981663259493 3.2780045916697302 C 24.702981663259493 2.849302105624094 24.543373406752433 2.514705300266343 24.224157063620254 2.2742136914760582 C 23.91558110557013 2.023266049896678 23.521879926351197 1.8977921039034311 23.043055224782798 1.8977921039034311 C 22.777041707435142 1.8977921039034311 22.542950449566224 1.934388936498989 22.34078016007334 2.0075823345891846 C 22.149250289638896 2.0807751066615983 21.984321857579005 2.1801084281333614 21.845994812929085 2.3055825577584907 C 21.707667768279165 2.431056061365838 21.5906211285472 2.572213914645364 21.494856193329976 2.7290561092501653 C 21.40973182157084 2.8754429054305564 21.340569148655554 3.0270574008231526 21.28736647576477 3.183899595427954 L 19.659363706786866 2.5094767162823395 C 19.744488078546002 2.258529074702959 19.87749525343057 2.0023535669732984 20.058384568901026 1.74094990929863 C 20.239273799430514 1.4690896011639878 20.468044711864664 1.223369842428695 20.744698886105468 1.003790900193672 C 21.021353128299047 0.7842113235939634 21.345889816865995 0.6064567378817245 21.718308832888958 0.4705265838144033 C 22.101368437852297 0.3241404053048903 22.542949719073903 0.2509471908465774 23.043055224782798 0.2509471908465774 C 23.553801455337613 0.2509471908465774 24.02198550001286 0.3241404053048903 24.447607528690476 0.4705265838144033 C 24.873229217604223 0.6169127623239163 25.240329671952733 0.8208079892514462 25.548905630002857 1.082212264596993 C 25.857481248289112 1.3436159222716615 26.096892698699058 1.6520726122690585 26.26714144221733 2.0075823345891846 C 26.4373901857356 2.363091422544625 26.522515576786347 2.749968942743503 26.522515576786347 3.168215429387658 C 26.522515576786347 3.4714437858081646 26.479951632628755 3.7485317931550117 26.394827422257457 3.999479434734392 C 26.32034329967483 4.250427376802308 26.21393935541922 4.475234869633719 26.07561247215714 4.673901779678166 C 25.937285266119382 4.862112656933517 25.78299736354119 5.024183226849727 25.61274862002292 5.1601130637347055 C 25.442499876504648 5.296043217802026 25.266930923457153 5.411060346397225 25.086041777868633 5.5051657850249 L 25.086041777868633 5.599271849670358 C 25.33077432119386 5.703833621575664 25.56486542616904 5.839763775642986 25.788316842578094 6.007062303525418 C 26.01176825898715 6.1639044981302185 26.2032975857994 6.352115158366073 26.362905927247425 6.571694417783438 C 26.533154670765697 6.791273677200803 26.66616216842594 7.042221268698761 26.761926789361585 7.324537592928691 C 26.857692047354483 7.596397734125259 26.905573516906728 7.8943984414149835 26.905573516906728 8.218539330840292 C 26.905573516906728 8.689066382081306 26.809809932250886 9.128224567039886 26.618280061816442 9.536014620243566 C 26.426750191382 9.93334857388292 26.16073582462467 10.278401495498805 25.820238337588126 10.57117385251783 C 25.490381269610022 10.853490109972531 25.09668192511598 11.073069686572238 24.63913867323943 11.229912031421307 C 24.181595115575394 11.397210542609931 23.681489643842887 11.480859756469725 23.138821884301652 11.480859756469725 ZM 32.198579240389606 11.229912031421307 L 32.198579240389606 0 L 36.15686201754363 0 C 36.667608248098446 0 37.14643298364323 0.08364898014648822 37.59333581646134 0.2509471908465774 C 38.05087906833789 0.41824603591135234 38.44989874127851 0.6535095114504367 38.79039622831505 0.9567378678709433 C 39.1308937153516 1.2599662242914498 39.39690808210893 1.6259318124625965 39.58843795254337 2.0546342985082324 C 39.79060824203626 2.4728807851523875 39.89169215513867 2.938179870080276 39.89169215513867 3.450531486516668 C 39.89169215513867 3.952427070163964 39.79060824203626 4.417726188479468 39.58843795254337 4.846428674525104 C 39.39690808210893 5.264674827293109 39.1308937153516 5.62541204849975 38.79039622831505 5.928640404920256 C 38.44989874127851 6.231869095216913 38.05087906833789 6.46713255406219 37.59333581646134 6.634431081944622 C 37.14643298364323 6.801729609827054 36.667608248098446 6.88537880699304 36.15686201754363 6.88537880699304 L 34.00215240641145 6.88537880699304 L 34.00215240641145 11.229912031421307 L 32.198579240389606 11.229912031421307 Z M 36.20474426005868 5.191481395815298 C 36.50267949326288 5.191481395815298 36.768691668543255 5.144428271676627 37.00278380979823 5.050322833048952 C 37.23687562827753 4.945761369979085 37.43372747501331 4.809831975480005 37.59333581646134 4.6425334475975735 C 37.75294383513369 4.475234919715142 37.875308475929735 4.287024042459791 37.96043300907671 4.077900799137713 C 38.04555721944801 3.868777872997978 38.088118989116836 3.6596547298387456 38.088118989116836 3.450531486516668 C 38.088118989116836 3.2309522270993023 38.04555721944801 3.0166009339950617 37.96043300907671 2.8074780078553268 C 37.875308475929735 2.598354464044714 37.75294383513369 2.4153717200405636 37.59333581646134 2.2585295254357622 C 37.43372747501331 2.091231314735673 37.23687562827753 1.9553011606683517 37.00278380979823 1.8507390715807024 C 36.768691668543255 1.746177608510835 36.50267949326288 1.6938968769759013 36.20474426005868 1.6938968769759013 L 34.00215240641145 1.6938968769759013 L 34.00215240641145 5.191481395815298 L 36.20474426005868 5.191481395815298 ZM 41.42592444528022 0 L 43.229497611302065 0 L 46.96432992338587 6.383483356896204 L 47.060094408415964 6.383483356896204 L 50.79492672049976 0 L 52.58253479003906 0 L 52.58253479003906 11.229912031421307 L 50.79492672049976 11.229912031421307 L 50.79492672049976 5.1287447316541135 L 50.890691205529855 3.246636793790979 L 50.79492672049976 3.246636793790979 L 47.53891683356644 8.845908109259495 L 46.469542401752854 8.845908109259495 L 43.229497611302065 3.246636793790979 L 43.13373312627197 3.246636793790979 L 43.229497611302065 5.1287447316541135 L 43.229497611302065 11.229912031421307 L 41.42592444528022 11.229912031421307 L 41.42592444528022 0 Z" fill="rgb(0,0,0)"/>
        </svg>