<svg 
          width="11.430985450744629" 
          height="16.073204040527344" fill="none" 
          xmlns="http://www.w3.org/2000/svg">
          <path d="M 5.371442626012022 0.07972410931180274 C 5.632099282719433 -0.0481865731516235 5.944018619646799 -0.020582574930623182 6.1771571593421575 0.15102765128356482 L 11.1232301256192 3.7917683178922204 C 11.319915087357103 3.9365458541522353 11.434259008669725 4.1648585664453135 11.430914172506105 4.406132170311032 C 11.427570384551874 4.647405516985586 11.306941399736566 4.872581783020611 11.106317267110889 5.0120550086921805 L 6.755661825287006 8.036602020263672 L 11.106317267110889 11.061148003070503 C 11.306941399736566 11.200621743124403 11.427570384551874 11.425797751968263 11.430914172506105 11.66707084145165 C 11.434259008669725 11.908344959699699 11.319915087357103 12.13665767199278 11.1232301256192 12.281435722635123 L 6.1771571593421575 15.922176244573748 C 5.944018619646799 16.093785506321066 5.632099282719433 16.12139034845058 5.371442626012022 15.993478894413656 C 5.110785707252264 15.865568469141394 4.946134810631055 15.604099700611892 4.946134810631055 15.318082549758593 L 4.946134810631055 9.294572874952316 L 1.2141715966091504 11.889009327909584 C 0.8674249785929773 12.130065348049651 0.3872232563691499 12.049600520145217 0.1416110904453895 11.709286199286574 C -0.10400107547837087 11.36897187842793 -0.022015443549400826 10.897677298550724 0.32473117446677235 10.656621278410656 L 4.093495087536954 8.036602020263672 L 0.32473117446677235 5.416581733352028 C -0.022015443549400826 5.17552571321196 -0.10400107547837087 4.704232162099415 0.1416110904453895 4.36391784124077 C 0.3872232563691499 4.023603520382125 0.8674249785929773 3.943138692477692 1.2141715966091504 4.184194712617759 L 4.946134810631055 6.778630651192698 L 4.946134810631055 0.7551209120886295 C 4.946134810631055 0.4691038576820176 5.110785707252264 0.20763485607302026 5.371442626012022 0.07972410931180274 Z M 6.484912484467586 9.699099599612163 L 9.355592702817459 11.69477753128253 L 6.484912484467586 13.807848827103033 L 6.484912484467586 9.699099599612163 Z M 6.484912484467586 6.374103926532851 L 6.484912484467586 2.265353927468485 L 9.355593751026849 4.3784254804801535 L 6.484912484467586 6.374103926532851 Z" fill="rgb(0,0,0)"/>
        </svg>